<svg xmlns="http://www.w3.org/2000/svg" version="1.1" xmlns:xlink="http://www.w3.org/1999/xlink" xmlns:svgjs="http://svgjs.dev/svgjs" width="1000" height="750" viewBox="0 0 1000 750"><rect width="1000" height="750" fill="#ffffff"></rect><g transform="matrix(0.834,0,0,0.834,82.4945462160909,288.14319970373856)"><svg viewBox="0 0 396 83" data-background-color="#ffffff" preserveAspectRatio="xMidYMid meet" height="209" width="1000" xmlns="http://www.w3.org/2000/svg" xmlns:xlink="http://www.w3.org/1999/xlink"><g id="tight-bounds" transform="matrix(1,0,0,1,0.2399996384028782,-0.14104262280298485)"><svg viewBox="0 0 395.52 83.28207081113662" height="83.28207081113662" width="395.52"><g><svg viewBox="0 0 529.6216437175148 111.5189806715024" height="83.28207081113662" width="395.52"><g transform="matrix(1,0,0,1,134.1016437175148,31.84487910249116)"><svg viewBox="0 0 395.52 47.829222466520086" height="47.829222466520086" width="395.52"><g id="textblocktransform"><svg viewBox="0 0 395.52 47.829222466520086" height="47.829222466520086" width="395.52" id="textblock"><g><svg viewBox="0 0 395.52 47.829222466520086" height="47.829222466520086" width="395.52"><g transform="matrix(1,0,0,1,0,0)"><svg width="395.52" viewBox="2.490000009536743 -29.100000381469727 245.38999938964844 29.540000915527344" height="47.829222466520086" data-palette-color="#096a2e"><g class="wordmark-text-0" data-fill-palette-color="primary" id="text-0"><path d="M12.21 0L2.59 0 2.49-1.66 5.47-2.34Q5.52-2.59 5.54-3.42 5.57-4.25 5.59-5.74 5.62-7.23 5.62-9.42L5.62-9.42 5.62-19.19Q5.62-21.44 5.59-22.95 5.57-24.46 5.54-25.29 5.52-26.12 5.47-26.32L5.47-26.32 2.49-27 2.59-28.66 12.21-28.66 12.3-27 9.33-26.32Q9.28-26.17 9.2-25.44 9.13-24.71 9.11-23.22 9.08-21.73 9.08-19.19L9.08-19.19 9.08-9.42Q9.08-6.98 9.11-5.47 9.13-3.96 9.2-3.25 9.28-2.54 9.33-2.34L9.33-2.34 12.3-1.66 12.21 0ZM39.79-6.35L39.21-6.35 39.21-18.31Q39.21-21.34 39.16-23.02 39.11-24.71 39.06-25.46 39.01-26.22 38.96-26.32L38.96-26.32 35.69-27 35.79-28.66 44.77-28.66 44.92-27 41.94-26.32Q41.94-26.22 41.87-25.46 41.79-24.71 41.75-23 41.7-21.29 41.7-18.31L41.7-18.31 41.7-6.05Q41.7-4.69 41.7-3.1 41.7-1.51 41.75 0.2L41.75 0.2 39.79 0.2 22.26-24.41 22.9-24.41 22.9-10.35Q22.9-7.37 22.97-5.69 23.04-4 23.12-3.25 23.19-2.49 23.19-2.34L23.19-2.34 26.46-1.66 26.36 0 17.28 0 17.19-1.66 20.11-2.34Q20.16-2.49 20.21-3.2 20.26-3.91 20.31-5.62 20.36-7.32 20.36-10.35L20.36-10.35 20.36-19.24Q20.36-21.68 20.33-23.1 20.31-24.51 20.26-25.24 20.21-25.98 20.11-26.32L20.11-26.32 17.19-27 17.28-28.66 23.68-28.66 39.79-6.35ZM62.35 0.15L60.49 0.15 50-26.32 47.55-26.95 47.65-28.66 57.03-28.66 57.12-27 54.15-26.32 62.64-4.39 61.96-4.39 69.97-26.32 66.55-27 66.65-28.66 75.34-28.66 75.43-26.95 72.99-26.32 62.35 0.15ZM100.82-6.69L98.92 0.24Q97.45 0.05 96.62 0.02 95.79 0 94.96 0L94.96 0 78.22 0 78.12-1.66 81.05-2.34Q81.14-2.59 81.17-3.42 81.19-4.25 81.22-5.76 81.24-7.28 81.24-9.42L81.24-9.42 81.24-19.19Q81.24-21.39 81.22-22.92 81.19-24.46 81.17-25.29 81.14-26.12 81.05-26.32L81.05-26.32 78.12-27 78.22-28.66 94.08-28.66Q94.72-28.66 95.28-28.66 95.84-28.66 96.55-28.71 97.26-28.76 98.28-28.86L98.28-28.86 99.16-22.61 97.16-22.31 95.55-26.37Q95.26-26.42 94.77-26.44 94.28-26.46 93.74-26.46L93.74-26.46 87.69-26.46Q86.76-26.46 86.1-26.44 85.44-26.42 84.76-26.32L84.76-26.32Q84.76-26.12 84.73-25.22 84.71-24.32 84.68-23.14 84.66-21.97 84.66-20.95L84.66-20.95 84.66-6.93Q84.66-6.1 84.68-5.18 84.71-4.25 84.73-3.49 84.76-2.73 84.76-2.49L84.76-2.49Q85.39-2.39 86.08-2.34 86.76-2.29 87.54-2.29L87.54-2.29 92.86-2.29Q93.89-2.29 94.57-2.32 95.26-2.34 95.7-2.39 96.14-2.44 96.33-2.49L96.33-2.49 98.87-7.08 100.82-6.69ZM95.65-10.06L93.74-10.06 93.16-13.43Q92.86-13.53 92.33-13.57 91.79-13.62 91.01-13.62L91.01-13.62 87-13.62Q86.42-13.62 85.66-13.57 84.9-13.53 84.03-13.48L84.03-13.48 84.03-15.97Q84.9-15.92 85.66-15.89 86.42-15.87 87-15.87L87-15.87 91.01-15.87Q91.79-15.87 92.33-15.89 92.86-15.92 93.16-16.02L93.16-16.02 93.74-19.48 95.65-19.48 95.65-10.06ZM127.58-6.35L126.99-6.35 126.99-18.31Q126.99-21.34 126.94-23.02 126.89-24.71 126.85-25.46 126.8-26.22 126.75-26.32L126.75-26.32 123.48-27 123.57-28.66 132.56-28.66 132.7-27 129.73-26.32Q129.73-26.22 129.65-25.46 129.58-24.71 129.53-23 129.48-21.29 129.48-18.31L129.48-18.31 129.48-6.05Q129.48-4.69 129.48-3.1 129.48-1.51 129.53 0.2L129.53 0.2 127.58 0.2 110.05-24.41 110.68-24.41 110.68-10.35Q110.68-7.37 110.76-5.69 110.83-4 110.9-3.25 110.98-2.49 110.98-2.34L110.98-2.34 114.25-1.66 114.15 0 105.07 0 104.97-1.66 107.9-2.34Q107.95-2.49 108-3.2 108.05-3.91 108.1-5.62 108.14-7.32 108.14-10.35L108.14-10.35 108.14-19.24Q108.14-21.68 108.12-23.1 108.1-24.51 108.05-25.24 108-25.98 107.9-26.32L107.9-26.32 104.97-27 105.07-28.66 111.46-28.66 127.58-6.35ZM159.7-28.86L159.7-28.86 160.78-21.14 158.83-20.9 156.77-26.42Q156.43-26.51 155.94-26.54 155.46-26.56 155.07-26.56L155.07-26.56 153.31-26.56Q152.82-26.56 151.89-26.56 150.96-26.56 150.23-26.46L150.23-26.46Q150.23-26.12 150.21-24.68 150.18-23.24 150.16-21.41 150.13-19.58 150.13-17.87L150.13-17.87 150.13-10.69Q150.13-7.52 150.18-5.22 150.23-2.93 150.28-2.34L150.28-2.34 154.33-1.76 154.24 0 142.57 0 142.42-1.76 146.52-2.34Q146.52-2.93 146.57-5.22 146.62-7.52 146.62-10.69L146.62-10.69 146.62-17.87Q146.62-19.58 146.62-21.41 146.62-23.24 146.62-24.68 146.62-26.12 146.57-26.46L146.57-26.46Q145.84-26.56 144.93-26.56 144.03-26.56 143.49-26.56L143.49-26.56 141.59-26.56Q141.2-26.56 140.76-26.54 140.32-26.51 139.98-26.42L139.98-26.42 137.88-20.85 135.97-21.14 137-28.86Q137.59-28.81 138.12-28.76 138.66-28.71 139.15-28.69 139.64-28.66 140.12-28.66 140.61-28.66 141.15-28.66L141.15-28.66 155.55-28.66Q156.09-28.66 156.58-28.66 157.07-28.66 157.56-28.69 158.04-28.71 158.56-28.76 159.07-28.81 159.7-28.86ZM178.5 0.44L178.5 0.44Q174.3 0.44 171.08-1.42 167.86-3.27 166.03-6.59 164.19-9.91 164.19-14.26L164.19-14.26Q164.19-18.51 166.07-21.88 167.95-25.24 171.23-27.17 174.5-29.1 178.65-29.1L178.65-29.1Q182.7-29.1 185.75-27.25 188.8-25.39 190.54-22.12 192.27-18.85 192.27-14.5L192.27-14.5Q192.27-11.38 191.22-8.67 190.17-5.96 188.32-3.91 186.46-1.86 183.94-0.71 181.43 0.44 178.5 0.44ZM178.99-1.9L178.99-1.9Q181.77-1.9 183.8-3.32 185.82-4.74 186.97-7.32 188.12-9.91 188.12-13.33L188.12-13.33Q188.12-17.38 186.85-20.41 185.58-23.44 183.31-25.17 181.04-26.9 178.06-26.9L178.06-26.9Q173.67-26.9 171.1-23.71 168.54-20.51 168.54-15.04L168.54-15.04Q168.54-11.23 169.88-8.25 171.23-5.27 173.62-3.59 176.01-1.9 178.99-1.9ZM207.01 0L197.64 0 197.49-1.66 200.47-2.44Q200.47-2.73 200.5-3.44 200.52-4.15 200.52-5.08 200.52-6.01 200.54-7.13 200.57-8.25 200.57-9.42L200.57-9.42 200.57-19.19Q200.57-21.48 200.54-23 200.52-24.51 200.5-25.32 200.47-26.12 200.37-26.32L200.37-26.32 197.44-27 197.54-28.66 207.65-28.66Q211.99-28.66 214.34-26.88 216.68-25.1 216.68-21.73L216.68-21.73Q216.68-19.34 215.39-17.46 214.09-15.58 211.8-14.5 209.5-13.43 206.53-13.43L206.53-13.43 203.35-13.43 203.35-15.48 206.38-15.48Q209.55-15.48 211.29-16.99 213.02-18.51 213.02-21.24L213.02-21.24Q213.02-23.93 211.53-25.32 210.04-26.71 207.16-26.71L207.16-26.71 204.08-26.71Q204.04-26.56 204.01-26.39 203.99-26.22 203.99-25.66 203.99-25.1 203.99-23.75 203.99-22.41 203.99-20.02L203.99-20.02 203.99-9.42Q203.99-7.08 204.01-5.71 204.04-4.35 204.08-3.61 204.13-2.88 204.18-2.44L204.18-2.44 207.11-1.66 207.01 0ZM220.1 0.44L220.1 0.44Q218.15 0.44 216.61-0.34 215.07-1.12 213.56-3.03 212.04-4.93 210.09-8.2L210.09-8.2 206.57-14.26 209.75-14.99 214.88-7.32Q216.34-5.13 217.46-3.91 218.59-2.69 219.66-2.1 220.73-1.51 222-1.27L222-1.27 221.96 0.29Q221.56 0.39 221.05 0.42 220.54 0.44 220.1 0.44ZM247.88-27L245.44-26.32 235.53-11.13 236.5-13.96 236.5-9.42Q236.5-7.32 236.53-6.01 236.55-4.69 236.58-3.93 236.6-3.17 236.63-2.83 236.65-2.49 236.65-2.34L236.65-2.34 240.07-1.71 239.97 0 229.57 0 229.42-1.71 232.84-2.34Q232.89-2.49 232.94-2.83 232.99-3.17 233.01-3.93 233.04-4.69 233.06-6.01 233.09-7.32 233.09-9.42L233.09-9.42 233.09-13.96 233.87-11.13 224.25-26.32 221.81-27 221.86-28.66 231.23-28.66 231.33-27 228.4-26.32 235.87-14.55 235.33-14.55 242.41-26.32 238.99-27 239.09-28.66 247.78-28.66 247.88-27Z" fill="#096a2e" data-fill-palette-color="primary"></path></g></svg></g></svg></g></svg></g></svg></g><g><svg viewBox="0 0 111.5189806715024 111.5189806715024" height="111.5189806715024" width="111.5189806715024"><g><svg></svg></g><g id="icon-0"><svg viewBox="0 0 111.5189806715024 111.5189806715024" height="111.5189806715024" width="111.5189806715024"><g><path d="M0 55.759c0-30.795 24.964-55.759 55.759-55.759 30.795 0 55.759 24.964 55.76 55.759 0 30.795-24.964 55.759-55.76 55.76-30.795 0-55.759-24.964-55.759-55.76zM55.759 107.206c28.413 0 51.446-23.033 51.447-51.447 0-28.413-23.033-51.446-51.447-51.446-28.413 0-51.446 23.033-51.446 51.446 0 28.413 23.033 51.446 51.446 51.447z" data-fill-palette-color="accent" fill="#096a2e" stroke="transparent"></path></g><g transform="matrix(1,0,0,1,31.77940313378834,28.023485861191745)"><svg viewBox="0 0 47.96017440392573 55.472008949118916" height="55.472008949118916" width="47.96017440392573"><g><svg xmlns="http://www.w3.org/2000/svg" xmlns:xlink="http://www.w3.org/1999/xlink" version="1.1" x="0" y="0" viewBox="9 1 83 96" enable-background="new 0 0 100 100" xml:space="preserve" height="55.472008949118916" width="47.96017440392573" class="icon-s-0" data-fill-palette-color="accent" id="s-0"><g fill="#096a2e" data-fill-palette-color="accent"><path fill="#096a2e" d="M71.3 10.01C57.831 10.01 50.55 1 50.55 1s-7.306 9.01-20.774 9.01C17.371 10.01 9 2.528 9 2.528v48.928C9.378 83.682 50.5 97 50.5 97S92 83.682 92 51.456V2.528C92 2.528 83.703 10.01 71.3 10.01z" data-fill-palette-color="accent"></path></g></svg></g></svg></g></svg></g></svg></g></svg></g><defs></defs></svg><rect width="395.52" height="83.28207081113662" fill="none" stroke="none" visibility="hidden"></rect></g></svg></g></svg>